<svg width="512" height="512" viewBox="0 0 512 512" fill="none" xmlns="http://www.w3.org/2000/svg">
<rect width="512" height="512" fill="#0082C8"/>
<path d="M379.452 160.677L350.5 131.622C347.773 129.138 345.142 126.748 342.696 124.53C336.927 119.298 327.719 123.396 327.719 131.185V143.848H296.078V132.032C296.078 125.405 290.706 120.032 284.078 120.032H260.617C253.99 120.032 248.617 125.405 248.617 132.032V143.848H217.862H185.336V132.032C185.336 125.405 179.963 120.032 173.336 120.032H144.73C131.599 120.032 121 130.67 121 143.848V367.184C121 380.361 131.599 391 144.73 391H367.27C380.401 391 391 380.361 391 367.184V188.779C391 178.142 386.887 168.139 379.452 160.677Z" fill="white" fill-opacity="0.95"/>
<path fill-rule="evenodd" clip-rule="evenodd" d="M327.719 191.479C327.719 204.656 317.12 215.294 303.988 215.294H209.066C195.935 215.294 185.336 204.656 185.336 191.479V120.032H248.617V175.602C248.617 180.047 252.097 183.54 256.527 183.54H288.168C292.598 183.54 296.078 180.047 296.078 175.602V120.032H322.498C324.233 120.032 325.966 120.19 327.7 120.348L327.719 120.349V191.479Z" fill="#0082C8"/>
<path fill-rule="evenodd" clip-rule="evenodd" d="M251.647 271.323C248.002 271.388 242.41 273.34 215.498 284.571C206.073 288.505 187.235 296.647 158.985 308.996C154.397 310.827 151.994 312.618 151.775 314.368C151.355 317.73 156.179 318.777 162.248 320.756C167.195 322.37 173.851 324.258 177.311 324.333C180.45 324.401 183.953 323.103 187.82 320.438C214.215 302.56 227.84 293.524 228.696 293.329C229.299 293.192 230.136 293.019 230.702 293.524C231.269 294.029 231.213 294.986 231.153 295.243C230.673 297.296 205.878 319.925 204.451 321.413C198.999 327.095 192.796 330.572 202.364 336.898C210.643 342.373 215.461 345.865 223.99 351.475C229.441 355.06 233.714 359.311 239.342 358.791C241.931 358.552 244.606 356.109 245.964 348.822C249.175 331.602 255.485 294.291 256.943 278.916C257.071 277.569 256.91 275.845 256.781 275.088C256.652 274.331 256.382 273.253 255.402 272.455C254.241 271.509 252.449 271.31 251.647 271.323Z" fill="#0082C8"/>
</svg>
