<svg width="512" height="512" viewBox="0 0 512 512" fill="none" xmlns="http://www.w3.org/2000/svg">
<rect width="512" height="512" rx="80" fill="#0082C8"/>
<path d="M402.313 144.548L368 110.305C363.703 106.412 359.606 102.714 355.96 99.4305C350.182 94.2259 341 98.333 341 106.109V124.713H303.5V108.645C303.5 102.018 298.127 96.6452 291.5 96.6452H259.25C252.623 96.6452 247.25 102.018 247.25 108.645V124.713H210.8H172.25V108.645C172.25 102.018 166.877 96.6452 160.25 96.6452H124.125C108.562 96.6452 96 109.182 96 124.713V387.932C96 403.462 108.562 416 124.125 416H387.875C403.438 416 416 403.462 416 387.932V177.668C416 165.131 411.125 153.342 402.313 144.548Z" fill="white" fill-opacity="0.95"/>
<path fill-rule="evenodd" clip-rule="evenodd" d="M341 180.85C341 196.38 328.438 208.918 312.875 208.918H200.375C184.812 208.918 172.25 196.38 172.25 180.85V96.645H247.25V162.138C247.25 167.377 251.374 171.494 256.625 171.494H294.125C299.376 171.494 303.5 167.377 303.5 162.138V96.645H334.812C336.868 96.645 338.923 96.8308 340.978 97.0166L341 97.0186V180.85Z" fill="#0082C8"/>
<path fill-rule="evenodd" clip-rule="evenodd" d="M250.841 274.952C246.521 275.029 239.893 277.329 207.998 290.566C196.827 295.202 174.5 304.798 141.019 319.353C135.582 321.51 132.734 323.621 132.475 325.684C131.977 329.646 137.693 330.879 144.886 333.212C150.75 335.114 158.638 337.339 162.739 337.428C166.459 337.508 170.611 335.978 175.194 332.837C206.477 311.767 222.626 301.117 223.639 300.888C224.355 300.726 225.346 300.522 226.017 301.118C226.689 301.713 226.623 302.841 226.552 303.144C225.983 305.563 196.596 332.233 194.905 333.986C188.443 340.683 181.092 344.781 192.431 352.237C202.243 358.689 207.954 362.805 218.062 369.416C224.522 373.642 229.587 378.652 236.257 378.04C239.326 377.758 242.496 374.878 244.106 366.291C247.91 345.995 255.389 302.021 257.118 283.9C257.269 282.313 257.079 280.281 256.926 279.389C256.773 278.497 256.453 277.226 255.291 276.286C253.915 275.171 251.791 274.937 250.841 274.952Z" fill="#0082C8"/>
</svg>
