<svg width="24" height="24" viewBox="0 0 24 24" fill="none" xmlns="http://www.w3.org/2000/svg">
  <path d="M20.75 14C21.391 14 21.9194 14.386 21.9916 14.8834L22 15C22 15.5128 21.5174 15.9355 20.8958 15.9933L20.75 16H3.25C2.60896 16 2.08062 15.614 2.00841 15.1166L2 15C2 14.4872 2.48255 14.0645 3.10422 14.0067L3.25 14H20.75Z"/>
  <path d="M20.75 8C21.391 8 21.9194 8.38604 21.9916 8.88338L22 9C22 9.51284 21.5174 9.93551 20.8958 9.99327L20.75 10H3.25C2.60896 10 2.08062 9.61396 2.00841 9.11662L2 9C2 8.48716 2.48255 8.06449 3.10422 8.00673L3.25 8H20.75Z"/>
</svg>
