<svg width="24" height="24" viewBox="0 0 24 24" fill="none" xmlns="http://www.w3.org/2000/svg">
  <path d="M9.37868 2C9.97542 2 10.5502 2.21335 11.0009 2.5978L11.1464 2.73223L13.2678 4.85355C13.3428 4.92857 13.4392 4.97728 13.5426 4.99377L13.6213 5H19C21.1422 5 22.8911 6.68397 22.9951 8.80036L23 9V18C23 20.1422 21.316 21.8911 19.1996 21.9951L19 22H5C2.8578 22 1.10892 20.316 1.0049 18.1996L1 18V6C1 3.8578 2.68397 2.10892 4.80036 2.0049L5 2H9.37868ZM9.37868 4H5C3.94564 4 3.08183 4.81588 3.00549 5.85074L3 6V18C3 19.0544 3.81588 19.9182 4.85074 19.9945L5 20H19C20.0544 20 20.9182 19.1841 20.9945 18.1493L21 18V9C21 7.94564 20.1841 7.08183 19.1493 7.00549L19 7H13.6213C13.0246 7 12.4498 6.78665 11.9991 6.4022L11.8536 6.26777L9.73223 4.14645C9.65722 4.07143 9.56082 4.02272 9.45737 4.00623L9.37868 4Z"/>
  <rect x="11" y="9" width="2" height="8"/>
  <rect x="8" y="12" width="8" height="2"/>
</svg>
