<svg width="24" height="24" viewBox="0 0 24 24" xmlns="http://www.w3.org/2000/svg">
<rect x="8" y="9" width="8" height="8"/>
<path d="M9.37868 2C9.97542 2 10.5502 2.21335 11.0009 2.5978L11.1464 2.73223L13.2678 4.85355C13.3428 4.92857 13.4392 4.97728 13.5426 4.99377L13.6213 5H19C21.1422 5 22.8911 6.68397 22.9951 8.80036L23 9V18C23 20.1422 21.316 21.8911 19.1996 21.9951L19 22H5C2.8578 22 1.10892 20.316 1.0049 18.1996L1 18V6C1 3.8578 2.68397 2.10892 4.80036 2.0049L5 2H9.37868ZM9.37868 4H5C3.94564 4 3.08183 4.81588 3.00549 5.85074L3 6V18C3 19.0544 3.81588 19.9182 4.85074 19.9945L5 20H19C20.0544 20 20.9182 19.1841 20.9945 18.1493L21 18V9C21 7.94564 20.1841 7.08183 19.1493 7.00549L19 7H13.6213C13.0246 7 12.4498 6.78665 11.9991 6.4022L11.8536 6.26777L9.73223 4.14645C9.65722 4.07143 9.56082 4.02272 9.45737 4.00623L9.37868 4Z"/>
<path fill-rule="evenodd" clip-rule="evenodd" d="M12 7C15.3137 7 18 9.68629 18 13C18 16.3137 15.3137 19 12 19C8.68629 19 6 16.3137 6 13C6 9.68629 8.68629 7 12 7ZM14.5593 10.4839C14.3247 10.488 13.9647 10.6132 12.2324 11.3336C11.6257 11.5859 10.4132 12.1081 8.59472 12.9002C8.29944 13.0176 8.14476 13.1324 8.13067 13.2448C8.10364 13.4604 8.41411 13.5275 8.80475 13.6544C9.12324 13.758 9.55166 13.879 9.77438 13.8839C9.97641 13.8882 10.2019 13.8049 10.4508 13.634C12.1499 12.4874 13.0269 11.9078 13.082 11.8953C13.1208 11.8865 13.1746 11.8754 13.2111 11.9078C13.2476 11.9402 13.244 12.0016 13.2401 12.0181C13.2092 12.1497 11.6132 13.6012 11.5214 13.6966C11.1704 14.061 10.7711 14.284 11.387 14.6898C11.9199 15.0409 12.2301 15.2649 12.7791 15.6247C13.1299 15.8546 13.405 16.1273 13.7672 16.094C13.9339 16.0787 14.1061 15.922 14.1935 15.4546C14.4002 14.3501 14.8063 11.957 14.9002 10.9708C14.9084 10.8844 14.8981 10.7739 14.8898 10.7253C14.8815 10.6768 14.8641 10.6076 14.801 10.5564C14.7263 10.4958 14.6109 10.483 14.5593 10.4839Z" fill="#179CDE"/>
</svg>
