<svg xmlns="http://www.w3.org/2000/svg" viewBox="0 0 578 584">
  <path d="M101 35l19-1h333c12 0 23 0 35 3 17 3 34 12 44 27 13 16 16 38 16 58v329c0 19 0 39-8 57a65 65 0 0 1-37 37c-18 7-38 7-57 7H130c-21 1-44 0-63-10-14-7-25-20-30-34-6-15-8-30-8-45V121c1-21 5-44 19-61 13-16 33-23 53-25m7 46c-10 1-19 6-24 14-7 8-9 20-9 31v334c0 12 2 25 10 34 9 10 23 12 35 12h336c14 1 30-3 38-15 6-9 8-20 8-31V125c0-12-2-24-10-33-9-9-22-12-35-12H121l-13 1z" />
  <path d="M271 161c9-11 31-10 38 4 3 5 3 11 3 17v87h88c7 0 16 1 21 7 6 6 7 14 6 22a21 21 0 0 1-10 14c-5 4-11 5-17 5h-88v82c0 7-1 15-6 20-10 10-29 10-37-2-3-6-4-13-4-19v-81h-87c-8-1-17-3-23-9-5-6-6-15-4-22a21 21 0 0 1 11-14c6-3 13-3 19-3h84v-88c0-7 1-14 6-20z" />
</svg>
